<svg xmlns="http://www.w3.org/2000/svg" viewBox="0 0 1400 900" width="1400" height="900" font-family="system-ui, -apple-system, 'Segoe UI', sans-serif">
<defs><marker id="arrow-causal" viewBox="0 0 10 10" refX="9" refY="5" markerWidth="7" markerHeight="7" orient="auto-start-reverse"><path d="M0,0 L10,5 L0,10 z" fill="#a1a1aa"/></marker><marker id="arrow-parallel" viewBox="0 0 10 10" refX="9" refY="5" markerWidth="7" markerHeight="7" orient="auto-start-reverse"><path d="M0,0 L10,5 L0,10 z" fill="#3182ce"/></marker><marker id="arrow-flashback" viewBox="0 0 10 10" refX="9" refY="5" markerWidth="7" markerHeight="7" orient="auto-start-reverse"><path d="M0,0 L10,5 L0,10 z" fill="#805ad5"/></marker><marker id="arrow-connection" viewBox="0 0 10 10" refX="9" refY="5" markerWidth="7" markerHeight="7" orient="auto-start-reverse"><path d="M0,0 L10,5 L0,10 z" fill="#38a169"/></marker><marker id="arrow-reveal" viewBox="0 0 10 10" refX="9" refY="5" markerWidth="7" markerHeight="7" orient="auto-start-reverse"><path d="M0,0 L10,5 L0,10 z" fill="#d69e2e"/></marker><marker id="arrow-transform" viewBox="0 0 10 10" refX="9" refY="5" markerWidth="7" markerHeight="7" orient="auto-start-reverse"><path d="M0,0 L10,5 L0,10 z" fill="#e53e3e"/></marker><marker id="arrow-default" viewBox="0 0 10 10" refX="9" refY="5" markerWidth="7" markerHeight="7" orient="auto-start-reverse"><path d="M0,0 L10,5 L0,10 z" fill="#a1a1aa"/></marker></defs>
<rect width="1400" height="900" fill="#0b0b0f"/>
<g id="title">
    <text x="60" y="40" fill="#f4f4f5" font-size="26" font-weight="700">Magnolia — Intersecting Lives</text>
    <text x="60" y="62" fill="#a1a1aa" font-size="13"><tspan x="60" dy="0">Nine Los Angeles strangers&apos; lives collide over one rainy day, linked by regret, estrangement, and coincidence.</tspan></text>
  </g>
<g id="map-body">
<g id="edges" fill="none"><path d="M735.7526077778263,160 Q885.747787615338,233.63440679299458 984.3099119511413,368.5643422582476" stroke="#38a169" stroke-width="1.6" stroke-dasharray="1 3" marker-end="url(#arrow-connection)"/><path d="M914.1957825693793,236.03555598633216 Q984.5744248095224,404.82185088648885 976.1684468086887,587.5" stroke="#38a169" stroke-width="1.6" stroke-dasharray="1 3" marker-end="url(#arrow-connection)"/><path d="M705.289809421254,160 Q794.9705834109095,438.2541237710329 805.8667371595884,730.4001017554202" stroke="#38a169" stroke-width="1.6" stroke-dasharray="1 3" marker-end="url(#arrow-connection)"/><path d="M594.1332628404116,730.4001017554202 Q605.0294165890905,438.2541237710329 694.710190578746,160" stroke="#38a169" stroke-width="1.6" stroke-dasharray="1 3" marker-end="url(#arrow-connection)"/><path d="M498.5417437700575,617.5000000000001 Q700.0000000000001,493.1354359425144 901.4582562299427,617.5" stroke="#38a169" stroke-width="1.6" stroke-dasharray="1 3" marker-end="url(#arrow-connection)"/><path d="M397.2579883467211,368.56434225824773 Q400.87473741007597,282.29994912228995 473.77351877618594,236.03555598633218" stroke="#3182ce" stroke-width="1.6" stroke-dasharray="2 3" marker-end="url(#arrow-parallel)"/><path d="M984.3099119511413,368.5643422582476 Q885.747787615338,233.63440679299458 735.7526077778263,160" stroke="#d69e2e" stroke-width="1.6" marker-end="url(#arrow-reveal)"/></g><g id="nodes"><g class="node" data-id="earl"><rect x="620" y="100" width="160" height="60" rx="10" fill="#0b0b0f" stroke="#e53e3e" stroke-width="2"/><rect x="620" y="100" width="4" height="60" rx="2" fill="#e53e3e"/><text x="700" y="133" fill="#f4f4f5" font-size="12" font-weight="600" text-anchor="middle"><tspan x="700" dy="0">Earl Partridge</tspan></text></g><g class="node" data-id="jimmy"><rect x="828.9059731481253" y="176.03555598633216" width="160" height="60" rx="10" fill="#0b0b0f" stroke="#e53e3e" stroke-width="2"/><rect x="828.9059731481253" y="176.03555598633216" width="4" height="60" rx="2" fill="#e53e3e"/><text x="908.9059731481253" y="209.03555598633216" fill="#f4f4f5" font-size="12" font-weight="600" text-anchor="middle"><tspan x="908.9059731481253" dy="0">Jimmy Gator</tspan></text></g><g class="node" data-id="frank"><rect x="940.0625197289676" y="368.5643422582476" width="160" height="60" rx="10" fill="#0b0b0f" stroke="#3182ce" stroke-width="2"/><rect x="940.0625197289676" y="368.5643422582476" width="4" height="60" rx="2" fill="#3182ce"/><text x="1020.0625197289676" y="401.5643422582476" fill="#f4f4f5" font-size="12" font-weight="600" text-anchor="middle"><tspan x="1020.0625197289676" dy="0">Frank Mackey</tspan></text></g><g class="node" data-id="claudia"><rect x="901.4582562299427" y="587.5" width="160" height="60" rx="10" fill="#0b0b0f" stroke="#3182ce" stroke-width="2"/><rect x="901.4582562299427" y="587.5" width="4" height="60" rx="2" fill="#3182ce"/><text x="981.4582562299427" y="620.5" fill="#f4f4f5" font-size="12" font-weight="600" text-anchor="middle"><tspan x="981.4582562299427" dy="0">Claudia Gator</tspan></text></g><g class="node" data-id="linda"><rect x="731.1565465808424" y="730.4001017554202" width="160" height="60" rx="10" fill="#0b0b0f" stroke="#38a169" stroke-width="2"/><rect x="731.1565465808424" y="730.4001017554202" width="4" height="60" rx="2" fill="#38a169"/><text x="811.1565465808424" y="763.4001017554202" fill="#f4f4f5" font-size="12" font-weight="600" text-anchor="middle"><tspan x="811.1565465808424" dy="0">Linda Partridge</tspan></text></g><g class="node" data-id="phil"><rect x="508.84345341915764" y="730.4001017554202" width="160" height="60" rx="10" fill="#0b0b0f" stroke="#d69e2e" stroke-width="2"/><rect x="508.84345341915764" y="730.4001017554202" width="4" height="60" rx="2" fill="#d69e2e"/><text x="588.8434534191576" y="763.4001017554202" fill="#f4f4f5" font-size="12" font-weight="600" text-anchor="middle"><tspan x="588.8434534191576" dy="0">Phil Parma (nurse)</tspan></text></g><g class="node" data-id="jim"><rect x="338.5417437700575" y="587.5000000000001" width="160" height="60" rx="10" fill="#0b0b0f" stroke="#d69e2e" stroke-width="2"/><rect x="338.5417437700575" y="587.5000000000001" width="4" height="60" rx="2" fill="#d69e2e"/><text x="418.5417437700575" y="620.5000000000001" fill="#f4f4f5" font-size="12" font-weight="600" text-anchor="middle"><tspan x="418.5417437700575" dy="0">Officer Jim Kurring</tspan></text></g><g class="node" data-id="donnie"><rect x="299.93748027103237" y="368.56434225824773" width="160" height="60" rx="10" fill="#0b0b0f" stroke="#805ad5" stroke-width="2"/><rect x="299.93748027103237" y="368.56434225824773" width="4" height="60" rx="2" fill="#805ad5"/><text x="379.93748027103237" y="401.56434225824773" fill="#f4f4f5" font-size="12" font-weight="600" text-anchor="middle"><tspan x="379.93748027103237" dy="0">Donnie Smith</tspan></text></g><g class="node" data-id="stanley"><rect x="411.0940268518747" y="176.03555598633218" width="160" height="60" rx="10" fill="#0b0b0f" stroke="#805ad5" stroke-width="2"/><rect x="411.0940268518747" y="176.03555598633218" width="4" height="60" rx="2" fill="#805ad5"/><text x="491.0940268518747" y="209.03555598633218" fill="#f4f4f5" font-size="12" font-weight="600" text-anchor="middle"><tspan x="491.0940268518747" dy="0">Stanley Spector</tspan></text></g></g><g id="edge-labels"><rect x="855.997787615338" y="223.63440679299458" width="59.5" height="14" rx="3" fill="#0b0b0f" stroke="#38a169" stroke-width="0.5" opacity="0.95"/><text x="885.747787615338" y="233.63440679299458" fill="#38a169" font-size="10" text-anchor="middle" font-style="italic" dominant-baseline="middle">father of</text><rect x="954.8244248095224" y="394.82185088648885" width="59.5" height="14" rx="3" fill="#0b0b0f" stroke="#38a169" stroke-width="0.5" opacity="0.95"/><text x="984.5744248095224" y="404.82185088648885" fill="#38a169" font-size="10" text-anchor="middle" font-style="italic" dominant-baseline="middle">father of</text><rect x="575.2794165890905" y="428.2541237710329" width="59.5" height="14" rx="3" fill="#0b0b0f" stroke="#38a169" stroke-width="0.5" opacity="0.95"/><text x="605.0294165890905" y="438.2541237710329" fill="#38a169" font-size="10" text-anchor="middle" font-style="italic" dominant-baseline="middle">cares for</text><rect x="670.2500000000001" y="483.1354359425144" width="59.5" height="14" rx="3" fill="#0b0b0f" stroke="#38a169" stroke-width="0.5" opacity="0.95"/><text x="700.0000000000001" y="493.1354359425144" fill="#38a169" font-size="10" text-anchor="middle" font-style="italic" dominant-baseline="middle">falls for</text><rect x="360.12473741007597" y="272.29994912228995" width="81.5" height="14" rx="3" fill="#0b0b0f" stroke="#3182ce" stroke-width="0.5" opacity="0.95"/><text x="400.87473741007597" y="282.29994912228995" fill="#3182ce" font-size="10" text-anchor="middle" font-style="italic" dominant-baseline="middle">past / future</text><rect x="861.497787615338" y="223.63440679299458" width="48.5" height="14" rx="3" fill="#0b0b0f" stroke="#d69e2e" stroke-width="0.5" opacity="0.95"/><text x="885.747787615338" y="233.63440679299458" fill="#d69e2e" font-size="10" text-anchor="middle" font-style="italic" dominant-baseline="middle">returns</text></g>
</g>
<g id="legend"><g><rect x="60" y="858" width="14" height="14" rx="3" fill="#e53e3e"/><text x="82" y="868" fill="#f4f4f5" font-size="12">Dying fathers</text></g><g><rect x="260" y="858" width="14" height="14" rx="3" fill="#3182ce"/><text x="282" y="868" fill="#f4f4f5" font-size="12">Estranged children</text></g><g><rect x="460" y="858" width="14" height="14" rx="3" fill="#38a169"/><text x="482" y="868" fill="#f4f4f5" font-size="12">Spouses</text></g><g><rect x="660" y="858" width="14" height="14" rx="3" fill="#d69e2e"/><text x="682" y="868" fill="#f4f4f5" font-size="12">Caregivers</text></g><g><rect x="860" y="858" width="14" height="14" rx="3" fill="#805ad5"/><text x="882" y="868" fill="#f4f4f5" font-size="12">Former quiz kids</text></g></g>
</svg>